<?xml version="1.0" encoding="UTF-8" standalone="no"?>
<!-- Created with Inkscape (http://www.inkscape.org/) -->

<svg
   width="48"
   height="48"
   viewBox="0 0 12.7 12.7"
   version="1.1"
   id="svg1"
   xml:space="preserve"
   inkscape:version="1.4.2 (ebf0e940d0, 2025-05-08)"
   sodipodi:docname="favicon.svg"
   xmlns:inkscape="http://www.inkscape.org/namespaces/inkscape"
   xmlns:sodipodi="http://sodipodi.sourceforge.net/DTD/sodipodi-0.dtd"
   xmlns="http://www.w3.org/2000/svg"
   xmlns:svg="http://www.w3.org/2000/svg"><sodipodi:namedview
     id="namedview1"
     pagecolor="#505050"
     bordercolor="#ffffff"
     borderopacity="1"
     inkscape:showpageshadow="0"
     inkscape:pageopacity="0"
     inkscape:pagecheckerboard="1"
     inkscape:deskcolor="#505050"
     inkscape:document-units="mm"
     inkscape:zoom="2.1744792"
     inkscape:cx="-45.298204"
     inkscape:cy="31.961677"
     inkscape:window-width="1912"
     inkscape:window-height="1040"
     inkscape:window-x="0"
     inkscape:window-y="0"
     inkscape:window-maximized="1"
     inkscape:current-layer="layer1" /><defs
     id="defs1"><filter
       inkscape:collect="always"
       style="color-interpolation-filters:sRGB"
       id="filter3"
       x="-0.14724516"
       y="-0.040059678"
       width="1.2944972"
       height="1.0801194"><feGaussianBlur
         inkscape:collect="always"
         stdDeviation="0.1963108"
         id="feGaussianBlur3" /></filter></defs><g
     inkscape:label="Layer 1"
     inkscape:groupmode="layer"
     id="layer1"><ellipse
       style="stroke-width:0.810699;stroke-dasharray:none;stroke:none;stroke-opacity:1;opacity:1;fill:#fff0e7;stroke-linecap:butt;paint-order:stroke fill markers;fill-opacity:1"
       id="ellipse3"
       cx="6.3500013"
       cy="6.3499975"
       rx="5.9446492"
       ry="5.9446468" /><g
       id="g3"
       transform="matrix(0.9449696,0,0,0.9449696,0.24334573,0.80003079)"
       style="stroke-width:0.591497;stroke-dasharray:none;stroke:#9a6f44;stroke-opacity:1;filter:url(#filter3);opacity:0.33976563"><g
         id="g1"
         transform="translate(2.7792948,-0.0073782)"
         style="stroke-width:0.591497;stroke-dasharray:none;stroke:#9a6f44;stroke-opacity:1"><path
           id="path2-6"
           style="fill:none;stroke:#9a6f44;stroke-width:0.591497;stroke-dasharray:none;paint-order:stroke fill markers;stroke-opacity:1"
           d="m 2.3282839,0 v 0.7758829 0.407836 c 0,0 -0.4096278,-0.3120381 -0.6377016,-0.2735485 C 1.4183986,0.9561038 1.0792865,1.1922622 1.0788285,1.4682942 1.0784065,1.7226561 1.3869857,1.9685013 1.6408462,1.9844698 2.2211484,2.0209723 2.483175,0.9355827 3.0632983,0.9748273 3.3034549,0.9910735 3.5883787,1.2275981 3.5905006,1.4682942 3.5926589,1.713068 3.300491,1.9190113 3.0632983,1.9794962 2.8169235,2.0423224 2.3282839,1.7755782 2.3282839,1.7755782 v 0.4376776 0.7233326 0.689806 c 0,0 0.3162433,-0.3869484 0.5387631,-0.3948889 C 3.0735577,3.2241345 3.3493921,3.35919 3.3918995,3.5614127 3.5011803,4.0813031 2.7229694,4.3996652 2.4982362,4.8810419 2.411003,5.067894 2.3282839,5.475874 2.3282839,5.475874 v 0.4120552 0.4343332 c 0,0.613764 0.4128698,-0.035469 0.4128698,-0.035469 0,0 0.5725262,0.3234184 0.5780281,1.0694299 0.00342,0.4650336 -0.3149809,0.8760439 -0.9908979,1.0404112 V 8.824516 9.1340003 c 0,0 -0.3108786,0.1334394 -0.4338649,0.24508 -0.086717,0.078717 -0.1949066,0.1585222 -0.2871438,0.2781037 -0.087844,0.1138856 -0.1862029,0.2794315 -0.2272441,0.456575 -0.063584,0.274445 -0.07099,0.638457 0.1308888,0.834946 0.4085995,0.397692 1.368263,0.68536 1.696469,0.219106 0.144584,-0.205397 -0.096745,-0.621322 -0.342971,-0.670972 -0.229108,-0.0462 -0.536134,0.07672 -0.536134,0.451866 v 0.812396"
           sodipodi:nodetypes="cccsssssscccccssccscccccsssssssc" /></g><g
         id="g2"
         transform="translate(1.914354)"
         style="stroke-width:0.591497;stroke-dasharray:none;stroke:#9a6f44;stroke-opacity:1"><path
           id="path1-2"
           style="fill:none;stroke:#9a6f44;stroke-width:0.591497;stroke-dasharray:none;paint-order:stroke fill markers;stroke-opacity:1"
           d="M 5.8847149,11.753723 V 8.1234004 c 0,0 -0.3146625,0.3850139 -0.5360696,0.3929149 C 5.1431668,8.5236467 4.8687116,8.3892693 4.8264169,8.1880573 4.7176821,7.6707662 5.4920027,7.3539957 5.7156122,6.875026 5.8024092,6.6891078 5.8847149,6.2831671 5.8847149,6.2831671 V 5.8731723 5.1647614 c 0,0 0.4839471,0.210125 0.7001986,0.1143928 C 6.9025274,5.13855 7.1453512,4.7521623 7.1519043,4.4048796 7.1588669,4.0358696 6.91952,3.6095827 6.5849135,3.4538416 6.3705065,3.3540469 5.8847149,3.5682343 5.8847149,3.5682343 V 2.9365869 2.5022538 c 0,-0.6137641 -0.4128702,0.035469 -0.4128702,0.035469 0,0 -0.4094955,-0.079374 -0.3529482,-0.6890079 0.05257,-0.5667607 0.7658184,-0.9929518 0.7658184,-0.9929518 V 0"
           sodipodi:nodetypes="ccssscccsssccscscc" /></g></g><g
       id="g6"
       transform="matrix(0.94496959,0,0,0.94496959,0.24334573,0.80003078)"
       style="display:none;opacity:1;stroke:#9a6f44;stroke-width:0.391988;stroke-dasharray:none;stroke-opacity:1"><g
         id="g4"
         transform="translate(2.7792948,-0.0073782)"
         style="stroke:#9a6f44;stroke-width:0.391988;stroke-dasharray:none;stroke-opacity:1"><path
           id="path4"
           style="fill:none;stroke:#9a6f44;stroke-width:0.391988;stroke-dasharray:none;stroke-opacity:1;paint-order:stroke fill markers"
           d="m 2.3282839,0 v 0.7758829 0.407836 c 0,0 -0.4096278,-0.3120381 -0.6377016,-0.2735485 C 1.4183986,0.9561038 1.0792865,1.1922622 1.0788285,1.4682942 1.0784065,1.7226561 1.3869857,1.9685013 1.6408462,1.9844698 2.2211484,2.0209723 2.483175,0.9355827 3.0632983,0.9748273 3.3034549,0.9910735 3.5883787,1.2275981 3.5905006,1.4682942 3.5926589,1.713068 3.300491,1.9190113 3.0632983,1.9794962 2.8169235,2.0423224 2.3282839,1.7755782 2.3282839,1.7755782 v 0.4376776 0.7233326 0.689806 c 0,0 0.3162433,-0.3869484 0.5387631,-0.3948889 C 3.0735577,3.2241345 3.3493921,3.35919 3.3918995,3.5614127 3.5011803,4.0813031 2.7229694,4.3996652 2.4982362,4.8810419 2.411003,5.067894 2.3282839,5.475874 2.3282839,5.475874 v 0.4120552 0.4343332 c 0,0.613764 0.4128698,-0.035469 0.4128698,-0.035469 0,0 0.5725262,0.3234184 0.5780281,1.0694299 0.00342,0.4650336 -0.3149809,0.8760439 -0.9908979,1.0404112 V 8.824516 9.1340003 c 0,0 -0.3108786,0.1334394 -0.4338649,0.24508 -0.086717,0.078717 -0.1949066,0.1585222 -0.2871438,0.2781037 -0.087844,0.1138856 -0.1862029,0.2794315 -0.2272441,0.456575 -0.063584,0.274445 -0.07099,0.638457 0.1308888,0.834946 0.4085995,0.397692 1.368263,0.68536 1.696469,0.219106 0.144584,-0.205397 -0.096745,-0.621322 -0.342971,-0.670972 -0.229108,-0.0462 -0.536134,0.07672 -0.536134,0.451866 v 0.812396"
           sodipodi:nodetypes="cccsssssscccccssccscccccsssssssc" /></g><g
         id="g5"
         transform="translate(1.914354)"
         style="stroke:#9a6f44;stroke-width:0.391988;stroke-dasharray:none;stroke-opacity:1"><path
           id="path5"
           style="fill:none;stroke:#9a6f44;stroke-width:0.391988;stroke-dasharray:none;stroke-opacity:1;paint-order:stroke fill markers"
           d="M 5.8847149,11.753723 V 8.1234004 c 0,0 -0.3146625,0.3850139 -0.5360696,0.3929149 C 5.1431668,8.5236467 4.8687116,8.3892693 4.8264169,8.1880573 4.7176821,7.6707662 5.4920027,7.3539957 5.7156122,6.875026 5.8024092,6.6891078 5.8847149,6.2831671 5.8847149,6.2831671 V 5.8731723 5.1647614 c 0,0 0.4839471,0.210125 0.7001986,0.1143928 C 6.9025274,5.13855 7.1453512,4.7521623 7.1519043,4.4048796 7.1588669,4.0358696 6.91952,3.6095827 6.5849135,3.4538416 6.3705065,3.3540469 5.8847149,3.5682343 5.8847149,3.5682343 V 2.9365869 2.5022538 c 0,-0.6137641 -0.4128702,0.035469 -0.4128702,0.035469 0,0 -0.4094955,-0.079374 -0.3529482,-0.6890079 0.05257,-0.5667607 0.7658184,-0.9929518 0.7658184,-0.9929518 V 0"
           sodipodi:nodetypes="ccssscccsssccscscc" /></g></g><ellipse
       style="opacity:1;fill:none;stroke:#9a6f44;stroke-width:0.810699;stroke-linecap:butt;stroke-dasharray:none;paint-order:stroke fill markers;stroke-opacity:1"
       id="path3"
       cx="6.3500013"
       cy="6.3499975"
       rx="5.9446492"
       ry="5.9446468" /></g></svg>
